# xmcd
# 
# Track frame offsets:
#     150
#     16003
#     37788
#     55365
#     74835
#     90399
#     114522
#     130474
#     143994
#     158475
# 
# Disc length: 2361
# 
# Revision: 2
# Processed by: cddbd v1.5.2PL0 Copyright (c) Steve Scherf et al.
# Submitted via: fre:ac v1.0.31
# 
DISCID=8009370a
DTITLE=甲斐バンド - GOLD/黄金
DYEAR=1983
DGENRE=Domestic(New Music)
TTITLE0=GOLD
TTITLE1=ボーイッシュ・ガール
TTITLE2=シーズン
TTITLE3=マッスル
TTITLE4=ムーンライト・プリズナー
TTITLE5=MIDNIGHT
TTITLE6=危険な道連れ
TTITLE7=SLEEPY CITY
TTITLE8=胸いっぱいの愛
TTITLE9=射程距離
EXTD=YEAR: 1983
EXTT0=
EXTT1=
EXTT2=
EXTT3=
EXTT4=
EXTT5=
EXTT6=
EXTT7=
EXTT8=
EXTT9=
PLAYORDER=
